<svg width="64" height="64" viewBox="0 0 64 64" fill="none" xmlns="http://www.w3.org/2000/svg">
<rect width="64" height="64" rx="8" fill="url(#paint0_linear_71_4873)"/>
<path d="M12.2 19.88C12.2 17.1917 12.2 15.8476 12.7231 14.8208C13.1833 13.9176 13.9176 13.1833 14.8208 12.7231C15.8476 12.2 17.1917 12.2 19.88 12.2H20.12C22.8082 12.2 24.1523 12.2 25.1791 12.7231C26.0823 13.1833 26.8166 13.9176 27.2768 14.8208C27.8 15.8476 27.8 17.1917 27.8 19.88V20.12C27.8 22.8082 27.8 24.1523 27.2768 25.1791C26.8166 26.0823 26.0823 26.8166 25.1791 27.2768C24.1523 27.8 22.8082 27.8 20.12 27.8H19.88C17.1917 27.8 15.8476 27.8 14.8208 27.2768C13.9176 26.8166 13.1833 26.0823 12.7231 25.1791C12.2 24.1523 12.2 22.8082 12.2 20.12V19.88Z" stroke="white" stroke-width="1.5" stroke-linejoin="round"/>
<path d="M36.1999 19.88C36.1999 17.1917 36.1999 15.8476 36.7231 14.8208C37.1833 13.9176 37.9176 13.1833 38.8208 12.7231C39.8476 12.2 41.1917 12.2 43.8799 12.2H44.1199C46.8082 12.2 48.1523 12.2 49.1791 12.7231C50.0823 13.1833 50.8166 13.9176 51.2768 14.8208C51.7999 15.8476 51.7999 17.1917 51.7999 19.88V20.12C51.7999 22.8082 51.7999 24.1523 51.2768 25.1791C50.8166 26.0823 50.0823 26.8166 49.1791 27.2768C48.1523 27.8 46.8082 27.8 44.1199 27.8H43.8799C41.1917 27.8 39.8476 27.8 38.8208 27.2768C37.9176 26.8166 37.1833 26.0823 36.7231 25.1791C36.1999 24.1523 36.1999 22.8082 36.1999 20.12V19.88Z" stroke="white" stroke-width="1.5" stroke-linejoin="round"/>
<path d="M12.2 43.8799C12.2 41.1917 12.2 39.8476 12.7231 38.8208C13.1833 37.9176 13.9176 37.1833 14.8208 36.7231C15.8476 36.1999 17.1917 36.1999 19.88 36.1999H20.12C22.8082 36.1999 24.1523 36.1999 25.1791 36.7231C26.0823 37.1833 26.8166 37.9176 27.2768 38.8208C27.8 39.8476 27.8 41.1917 27.8 43.8799V44.1199C27.8 46.8082 27.8 48.1523 27.2768 49.1791C26.8166 50.0823 26.0823 50.8166 25.1791 51.2768C24.1523 51.7999 22.8082 51.7999 20.12 51.7999H19.88C17.1917 51.7999 15.8476 51.7999 14.8208 51.2768C13.9176 50.8166 13.1833 50.0823 12.7231 49.1791C12.2 48.1523 12.2 46.8082 12.2 44.1199V43.8799Z" stroke="white" stroke-width="1.5" stroke-linejoin="round"/>
<path d="M36.1999 43.8799C36.1999 41.1917 36.1999 39.8476 36.7231 38.8208C37.1833 37.9176 37.9176 37.1833 38.8208 36.7231C39.8476 36.1999 41.1917 36.1999 43.8799 36.1999H44.1199C46.8082 36.1999 48.1523 36.1999 49.1791 36.7231C50.0823 37.1833 50.8166 37.9176 51.2768 38.8208C51.7999 39.8476 51.7999 41.1917 51.7999 43.8799V44.1199C51.7999 46.8082 51.7999 48.1523 51.2768 49.1791C50.8166 50.0823 50.0823 50.8166 49.1791 51.2768C48.1523 51.7999 46.8082 51.7999 44.1199 51.7999H43.8799C41.1917 51.7999 39.8476 51.7999 38.8208 51.2768C37.9176 50.8166 37.1833 50.0823 36.7231 49.1791C36.1999 48.1523 36.1999 46.8082 36.1999 44.1199V43.8799Z" stroke="white" stroke-width="1.5" stroke-linejoin="round"/>
<defs>
<linearGradient id="paint0_linear_71_4873" x1="32" y1="0" x2="32" y2="64" gradientUnits="userSpaceOnUse">
<stop stop-color="#3A3581" stop-opacity="0.4"/>
<stop offset="1" stop-color="#3A3581" stop-opacity="0.3"/>
</linearGradient>
</defs>
</svg>
