<svg width="100" height="100" viewBox="0 0 100 100" fill="none" xmlns="http://www.w3.org/2000/svg">
<circle cx="50" cy="50" r="49.5" stroke="white"/>
<path d="M58.8 23.6H30C26.4654 23.6 23.6 26.4654 23.6 30V33.2M23.6 33.2V70C23.6 73.5346 26.4654 76.4 30 76.4H70C73.5346 76.4 76.4 73.5346 76.4 70V39.6C76.4 36.0654 73.5346 33.2 70 33.2H23.6ZM67.6 54.8C67.6 57.0091 65.8091 58.8 63.6 58.8C61.3908 58.8 59.6 57.0091 59.6 54.8C59.6 52.5908 61.3908 50.8 63.6 50.8C65.8091 50.8 67.6 52.5908 67.6 54.8Z" stroke="white" stroke-width="1.5" stroke-linecap="round" stroke-linejoin="round"/>
</svg>
